<svg width="1600" height="1200" xmlns="http://www.w3.org/2000/svg">
 <!-- Created with Method Draw - http://github.com/duopixel/Method-Draw/ -->
 <g>
  <title>background</title>
  <rect fill="#fff" id="canvas_background" height="1202" width="1602" y="-1" x="-1"/>
  <g display="none" overflow="visible" y="0" x="0" height="100%" width="100%" id="canvasGrid">
   <rect fill="url(#gridpattern)" stroke-width="0" y="0" x="0" height="100%" width="100%"/>
  </g>
 </g>
 <g>
  <title>Layer 1</title>
  <path id="svg_2" d="m57.197464,157.942283l11.571429,-26.999996l30.857143,0l11.571426,26.999996l-11.571426,26.999996l-30.857143,0l-11.571429,-26.999996z" stroke-width="1.5" stroke="#000" fill="#fff"/>
  <path id="svg_3" d="m130.19746,118.94228l11.57143,-26.99999l30.85715,0l11.57142,26.99999l-11.57142,27l-30.85715,0l-11.57143,-27z" stroke-width="1.5" stroke="#000" fill="#fff"/>
  <path id="svg_4" d="m128.19746,207.94228l11.57143,-26.99999l30.85715,0l11.57142,26.99999l-11.57142,27l-30.85715,0l-11.57143,-27z" stroke-width="1.5" stroke="#000" fill="#fff"/>
  <path id="svg_5" d="m205.19746,159.94228l11.57143,-26.99999l30.85715,0l11.57142,26.99999l-11.57142,27l-30.85715,0l-11.57143,-27z" stroke-width="1.5" stroke="#000" fill="#fff"/>
  <path id="svg_6" d="m206.864129,239.275554l11.57143,-26.99999l30.85715,0l11.57142,26.99999l-11.57142,27l-30.85715,0l-11.57143,-27z" stroke-width="1.5" stroke="#000" fill="#fff"/>
  <path id="svg_7" d="m205.19746,72.94228l11.57143,-26.99999l30.85715,0l11.57142,26.99999l-11.57142,27l-30.85715,0l-11.57143,-27z" stroke-width="1.5" stroke="#000" fill="#fff"/>
  <path id="svg_8" d="m128.19746,279.94228l11.57143,-26.99999l30.85715,0l11.57142,26.99999l-11.57142,27l-30.85715,0l-11.57143,-27z" stroke-width="1.5" stroke="#000" fill="#fff"/>
  <path id="svg_9" d="m205.19746,318.94228l11.57143,-26.99999l30.85715,0l11.57142,26.99999l-11.57142,27l-30.85715,0l-11.57143,-27z" stroke-width="1.5" stroke="#000" fill="#fff"/>
  <path id="svg_10" d="m55.19746,238.275561l11.57143,-26.99999l30.85715,0l11.57142,26.99999l-11.57142,27l-30.85715,0l-11.57143,-27z" stroke-width="1.5" stroke="#000" fill="#fff"/>
  <path id="svg_11" d="m275.19746,519.94228l11.57143,-26.99999l30.85715,0l11.57142,26.99999l-11.57142,27l-30.85715,0l-11.57143,-27z" stroke-width="1.5" stroke="#000" fill="#fff"/>
  <path id="svg_12" d="m277.19746,121.94228l11.57143,-26.99999l30.85715,0l11.57142,26.99999l-11.57142,27l-30.85715,0l-11.57143,-27z" stroke-width="1.5" stroke="#000" fill="#fff"/>
  <path id="svg_13" d="m278.19746,208.94228l11.57143,-26.99999l30.85715,0l11.57142,26.99999l-11.57142,27l-30.85715,0l-11.57143,-27z" stroke-width="1.5" stroke="#000" fill="#fff"/>
  <path id="svg_14" d="m275.19746,280.94228l11.57143,-26.99999l30.85715,0l11.57142,26.99999l-11.57142,27l-30.85715,0l-11.57143,-27z" stroke-width="1.5" stroke="#000" fill="#fff"/>
  <path id="svg_15" d="m275.19746,358.94228l11.57143,-26.99999l30.85715,0l11.57142,26.99999l-11.57142,27l-30.85715,0l-11.57143,-27z" stroke-width="1.5" stroke="#000" fill="#fff"/>
  <path id="svg_16" d="m129.19746,519.94228l11.57143,-26.99999l30.85715,0l11.57142,26.99999l-11.57142,27l-30.85715,0l-11.57143,-27z" stroke-width="1.5" stroke="#000" fill="#fff"/>
  <path id="svg_17" d="m54.19746,319.94228l11.57143,-26.99999l30.85715,0l11.57142,26.99999l-11.57142,27l-30.85715,0l-11.57143,-27z" stroke-width="1.5" stroke="#000" fill="#fff"/>
  <path id="svg_18" d="m129.19746,358.94228l11.57143,-26.99999l30.85715,0l11.57142,26.99999l-11.57142,27l-30.85715,0l-11.57143,-27z" stroke-width="1.5" stroke="#000" fill="#fff"/>
  <path id="svg_19" d="m54.19746,398.94228l11.57143,-26.99999l30.85715,0l11.57142,26.99999l-11.57142,27l-30.85715,0l-11.57143,-27z" stroke-width="1.5" stroke="#000" fill="#fff"/>
  <path id="svg_20" d="m130.19746,437.94228l11.57143,-26.99999l30.85715,0l11.57142,26.99999l-11.57142,27l-30.85715,0l-11.57143,-27z" stroke-width="1.5" stroke="#000" fill="#fff"/>
  <path id="svg_21" d="m205.19746,401.94228l11.57143,-26.99999l30.85715,0l11.57142,26.99999l-11.57142,27l-30.85715,0l-11.57143,-27z" stroke-width="1.5" stroke="#000" fill="#fff"/>
  <path id="svg_22" d="m275.19746,431.94228l11.57143,-26.99999l30.85715,0l11.57142,26.99999l-11.57142,27l-30.85715,0l-11.57143,-27z" stroke-width="1.5" stroke="#000" fill="#fff"/>
  <path id="svg_23" d="m204.19746,480.94228l11.57143,-26.99999l30.85715,0l11.57142,26.99999l-11.57142,27l-30.85715,0l-11.57143,-27z" stroke-width="1.5" stroke="#000" fill="#fff"/>
  <path id="svg_24" d="m205.19746,552.94228l11.57143,-26.99999l30.85715,0l11.57142,26.99999l-11.57142,27l-30.85715,0l-11.57143,-27z" stroke-width="1.5" stroke="#000" fill="#fff"/>
  <path id="svg_25" d="m356.19746,160.94228l11.57143,-26.99999l30.85715,0l11.57142,26.99999l-11.57142,27l-30.85715,0l-11.57143,-27z" stroke-width="1.5" stroke="#000" fill="#fff"/>
  <path id="svg_26" d="m355.530791,233.942266l11.57143,-26.99999l30.85715,0l11.57142,26.99999l-11.57142,27l-30.85715,0l-11.57143,-27z" stroke-width="1.5" stroke="#000" fill="#fff"/>
  <path id="svg_27" d="m356.19746,318.94228l11.57143,-26.99999l30.85715,0l11.57142,26.99999l-11.57142,27l-30.85715,0l-11.57143,-27z" stroke-width="1.5" stroke="#000" fill="#fff"/>
  <path id="svg_28" d="m355.19746,399.94228l11.57143,-26.99999l30.85715,0l11.57142,26.99999l-11.57142,27l-30.85715,0l-11.57143,-27z" stroke-width="1.5" stroke="#000" fill="#fff"/>
  <path id="svg_29" d="m354.19746,481.94228l11.57143,-26.99999l30.85715,0l11.57142,26.99999l-11.57142,27l-30.85715,0l-11.57143,-27z" stroke-width="1.5" stroke="#000" fill="#fff"/>
  <path id="svg_30" d="m53.19746,478.94228l11.57143,-26.99999l30.85715,0l11.57142,26.99999l-11.57142,27l-30.85715,0l-11.57143,-27z" stroke-width="1.5" stroke="#000" fill="#fff"/>
  <path id="svg_31" d="m55.19746,553.94228l11.57143,-26.99999l30.85715,0l11.57142,26.99999l-11.57142,27l-30.85715,0l-11.57143,-27z" stroke-width="1.5" stroke="#000" fill="#fff"/>
  <path id="svg_32" d="m129.19746,600.94228l11.57143,-26.99999l30.85715,0l11.57142,26.99999l-11.57142,27l-30.85715,0l-11.57143,-27z" stroke-width="1.5" stroke="#000" fill="#fff"/>
  <path id="svg_33" d="m276.19746,601.94228l11.57143,-26.99999l30.85715,0l11.57142,26.99999l-11.57142,27l-30.85715,0l-11.57143,-27z" stroke-width="1.5" stroke="#000" fill="#fff"/>
  <path id="svg_34" d="m204.19746,631.94228l11.57143,-26.99999l30.85715,0l11.57142,26.99999l-11.57142,27l-30.85715,0l-11.57143,-27z" stroke-width="1.5" stroke="#000" fill="#fff"/>
  <path id="svg_35" d="m354.19746,555.94228l11.57143,-26.99999l30.85715,0l11.57142,26.99999l-11.57142,27l-30.85715,0l-11.57143,-27z" stroke-width="1.5" stroke="#000" fill="#fff"/>
  <path id="svg_36" d="m276.19746,679.94228l11.57143,-26.99999l30.85715,0l11.57142,26.99999l-11.57142,27l-30.85715,0l-11.57143,-27z" stroke-width="1.5" stroke="#000" fill="#fff"/>
  <path id="svg_37" d="m354.19746,632.94228l11.57143,-26.99999l30.85715,0l11.57142,26.99999l-11.57142,27l-30.85715,0l-11.57143,-27z" stroke-width="1.5" stroke="#000" fill="#fff"/>
  <path id="svg_38" d="m129.864122,679.275533l11.57143,-26.99999l30.85715,0l11.57142,26.99999l-11.57142,27l-30.85715,0l-11.57143,-27z" stroke-width="1.5" stroke="#000" fill="#fff"/>
  <path id="svg_39" d="m202.19746,721.94228l11.57143,-26.99999l30.85715,0l11.57142,26.99999l-11.57142,27l-30.85715,0l-11.57143,-27z" stroke-width="1.5" stroke="#000" fill="#fff"/>
  <path id="svg_40" d="m54.19746,630.94228l11.57143,-26.99999l30.85715,0l11.57142,26.99999l-11.57142,27l-30.85715,0l-11.57143,-27z" stroke-width="1.5" stroke="#000" fill="#fff"/>
  <path id="svg_41" d="m354.19746,717.94228l11.57143,-26.99999l30.85715,0l11.57142,26.99999l-11.57142,27l-30.85715,0l-11.57143,-27z" stroke-width="1.5" stroke="#000" fill="#fff"/>
  <path id="svg_42" d="m277.19746,760.94228l11.57143,-26.99999l30.85715,0l11.57142,26.99999l-11.57142,27l-30.85715,0l-11.57143,-27z" stroke-width="1.5" stroke="#000" fill="#fff"/>
  <path id="svg_43" d="m54.19746,716.94228l11.57143,-26.99999l30.85715,0l11.57142,26.99999l-11.57142,27l-30.85715,0l-11.57143,-27z" stroke-width="1.5" stroke="#000" fill="#fff"/>
  <path id="svg_44" d="m127.19746,757.94228l11.57143,-26.99999l30.85715,0l11.57142,26.99999l-11.57142,27l-30.85715,0l-11.57143,-27z" stroke-width="1.5" stroke="#000" fill="#fff"/>
  <path id="svg_45" d="m206.19746,798.94228l11.57143,-26.99999l30.85715,0l11.57142,26.99999l-11.57142,27l-30.85715,0l-11.57143,-27z" stroke-width="1.5" stroke="#000" fill="#fff"/>
  <path id="svg_46" d="m354.530791,797.608849l11.57143,-26.99999l30.85715,0l11.57142,26.99999l-11.57142,27l-30.85715,0l-11.57143,-27z" stroke-width="1.5" stroke="#000" fill="#fff"/>
  <path id="svg_47" d="m54.19746,800.94228l11.57143,-26.99999l30.85715,0l11.57142,26.99999l-11.57142,27l-30.85715,0l-11.57143,-27z" stroke-width="1.5" stroke="#000" fill="#fff"/>
  <path transform="translate(81,566) " id="svg_48" d="m47.19746,272.94228l11.57143,-26.99999l30.85715,0l11.57142,26.99999l-11.57142,27l-30.85715,0l-11.57143,-27z" stroke-width="1.5" stroke="#000" fill="#fff"/>
  <path id="svg_49" d="m283.19746,838.94228l11.57143,-26.99999l30.85715,0l11.57142,26.99999l-11.57142,27l-30.85715,0l-11.57143,-27z" stroke-width="1.5" stroke="#000" fill="#fff"/>
  <path id="svg_50" d="m205.19746,884.94228l11.57143,-26.99999l30.85715,0l11.57142,26.99999l-11.57142,27l-30.85715,0l-11.57143,-27z" stroke-width="1.5" stroke="#000" fill="#fff"/>
  <text xml:space="preserve" text-anchor="start" font-family="Helvetica, Arial, sans-serif" font-size="24" id="svg_57" y="166" x="70" fill-opacity="null" stroke-opacity="null" stroke-width="0" stroke="#000" fill="#000000">A1</text>
  <text xml:space="preserve" text-anchor="start" font-family="Helvetica, Arial, sans-serif" font-size="24" id="svg_58" y="128" x="143" fill-opacity="null" stroke-opacity="null" stroke-width="0" stroke="#000" fill="#000000">A2</text>
  <text style="cursor: move;" xml:space="preserve" text-anchor="start" font-family="Helvetica, Arial, sans-serif" font-size="24" id="svg_60" y="82" x="218" fill-opacity="null" stroke-opacity="null" stroke-width="0" stroke="#000" fill="#000000">A3</text>
  <text xml:space="preserve" text-anchor="start" font-family="Helvetica, Arial, sans-serif" font-size="24" id="svg_61" y="245.666634" x="67.000007" fill-opacity="null" stroke-opacity="null" stroke-width="0" stroke="#000" fill="#000000">B1</text>
  <text xml:space="preserve" text-anchor="start" font-family="Helvetica, Arial, sans-serif" font-size="24" id="svg_62" y="219" x="141" fill-opacity="null" stroke-opacity="null" stroke-width="0" stroke="#000" fill="#000000">B2</text>
  <text xml:space="preserve" text-anchor="start" font-family="Helvetica, Arial, sans-serif" font-size="24" id="svg_63" y="170" x="217" fill-opacity="null" stroke-opacity="null" stroke-width="0" stroke="#000" fill="#000000">B3</text>
  <text xml:space="preserve" text-anchor="start" font-family="Helvetica, Arial, sans-serif" font-size="24" id="svg_64" y="130" x="290" fill-opacity="null" stroke-opacity="null" stroke-width="0" stroke="#000" fill="#000000">B4</text>
  <text xml:space="preserve" text-anchor="start" font-family="Helvetica, Arial, sans-serif" font-size="24" id="svg_65" y="330" x="67" fill-opacity="null" stroke-opacity="null" stroke-width="0" stroke="#000" fill="#000000">C1</text>
  <text xml:space="preserve" text-anchor="start" font-family="Helvetica, Arial, sans-serif" font-size="24" id="svg_66" y="289" x="140" fill-opacity="null" stroke-opacity="null" stroke-width="0" stroke="#000" fill="#000000">C2</text>
  <text xml:space="preserve" text-anchor="start" font-family="Helvetica, Arial, sans-serif" font-size="24" id="svg_67" y="247.99995" x="218.666669" fill-opacity="null" stroke-opacity="null" stroke-width="0" stroke="#000" fill="#000000">C3</text>
  <text xml:space="preserve" text-anchor="start" font-family="Helvetica, Arial, sans-serif" font-size="24" id="svg_68" y="220" x="288" fill-opacity="null" stroke-opacity="null" stroke-width="0" stroke="#000" fill="#000000">C4</text>
  <text xml:space="preserve" text-anchor="start" font-family="Helvetica, Arial, sans-serif" font-size="24" id="svg_69" y="170" x="367" fill-opacity="null" stroke-opacity="null" stroke-width="0" stroke="#000" fill="#000000">C5</text>
  <text style="cursor: move;" xml:space="preserve" text-anchor="start" font-family="Helvetica, Arial, sans-serif" font-size="24" id="svg_70" y="408" x="66" stroke-width="0" stroke="#000" fill="#000000">D1</text>
  <text xml:space="preserve" text-anchor="start" font-family="Helvetica, Arial, sans-serif" font-size="24" id="svg_71" y="368" x="141" fill-opacity="null" stroke-opacity="null" stroke-width="0" stroke="#000" fill="#000000">D2</text>
  <text xml:space="preserve" text-anchor="start" font-family="Helvetica, Arial, sans-serif" font-size="24" id="svg_72" y="330" x="217" fill-opacity="null" stroke-opacity="null" stroke-width="0" stroke="#000" fill="#000000">D3</text>
  <text xml:space="preserve" text-anchor="start" font-family="Helvetica, Arial, sans-serif" font-size="24" id="svg_73" y="290" x="288" fill-opacity="null" stroke-opacity="null" stroke-width="0" stroke="#000" fill="#000000">D4</text>
  <text xml:space="preserve" text-anchor="start" font-family="Helvetica, Arial, sans-serif" font-size="24" id="svg_74" y="241.999993" x="366.999993" fill-opacity="null" stroke-opacity="null" stroke-width="0" stroke="#000" fill="#000000">D5</text>
  <text xml:space="preserve" text-anchor="start" font-family="Helvetica, Arial, sans-serif" font-size="24" id="svg_75" y="487" x="65" fill-opacity="null" stroke-opacity="null" stroke-width="0" stroke="#000" fill="#000000">E1</text>
  <text xml:space="preserve" text-anchor="start" font-family="Helvetica, Arial, sans-serif" font-size="24" id="svg_76" y="447" x="141" fill-opacity="null" stroke-opacity="null" stroke-width="0" stroke="#000" fill="#000000">E2</text>
  <text xml:space="preserve" text-anchor="start" font-family="Helvetica, Arial, sans-serif" font-size="24" id="svg_77" y="411" x="217" fill-opacity="null" stroke-opacity="null" stroke-width="0" stroke="#000" fill="#000000">E3</text>
  <text xml:space="preserve" text-anchor="start" font-family="Helvetica, Arial, sans-serif" font-size="24" id="svg_78" y="370" x="287" fill-opacity="null" stroke-opacity="null" stroke-width="0" stroke="#000" fill="#000000">E4</text>
  <text xml:space="preserve" text-anchor="start" font-family="Helvetica, Arial, sans-serif" font-size="24" id="svg_79" y="329" x="368" fill-opacity="null" stroke-opacity="null" stroke-width="0" stroke="#000" fill="#000000">E5</text>
  <text xml:space="preserve" text-anchor="start" font-family="Helvetica, Arial, sans-serif" font-size="24" id="svg_80" y="562" x="70" fill-opacity="null" stroke-opacity="null" stroke-width="0" stroke="#000" fill="#000000">F1</text>
  <text xml:space="preserve" text-anchor="start" font-family="Helvetica, Arial, sans-serif" font-size="24" id="svg_81" y="528" x="142" fill-opacity="null" stroke-opacity="null" stroke-width="0" stroke="#000" fill="#000000">F2</text>
  <text xml:space="preserve" text-anchor="start" font-family="Helvetica, Arial, sans-serif" font-size="24" id="svg_82" y="490" x="217" fill-opacity="null" stroke-opacity="null" stroke-width="0" stroke="#000" fill="#000000">F3</text>
  <text xml:space="preserve" text-anchor="start" font-family="Helvetica, Arial, sans-serif" font-size="24" id="svg_83" y="440" x="288" fill-opacity="null" stroke-opacity="null" stroke-width="0" stroke="#000" fill="#000000">F4</text>
  <text xml:space="preserve" text-anchor="start" font-family="Helvetica, Arial, sans-serif" font-size="24" id="svg_84" y="409" x="366" fill-opacity="null" stroke-opacity="null" stroke-width="0" stroke="#000" fill="#000000">F5</text>
  <text xml:space="preserve" text-anchor="start" font-family="Helvetica, Arial, sans-serif" font-size="24" id="svg_85" y="638" x="65" fill-opacity="null" stroke-opacity="null" stroke-width="0" stroke="#000" fill="#000000">G1</text>
  <text xml:space="preserve" text-anchor="start" font-family="Helvetica, Arial, sans-serif" font-size="24" id="svg_86" y="611" x="140" fill-opacity="null" stroke-opacity="null" stroke-width="0" stroke="#000" fill="#000000">G2</text>
  <text xml:space="preserve" text-anchor="start" font-family="Helvetica, Arial, sans-serif" font-size="24" id="svg_87" y="562" x="217" fill-opacity="null" stroke-opacity="null" stroke-width="0" stroke="#000" fill="#000000">G3</text>
  <text xml:space="preserve" text-anchor="start" font-family="Helvetica, Arial, sans-serif" font-size="24" id="svg_88" y="528" x="287" fill-opacity="null" stroke-opacity="null" stroke-width="0" stroke="#000" fill="#000000">G4</text>
  <text xml:space="preserve" text-anchor="start" font-family="Helvetica, Arial, sans-serif" font-size="24" id="svg_89" y="490" x="365" fill-opacity="null" stroke-opacity="null" stroke-width="0" stroke="#000" fill="#000000">G5</text>
  <text xml:space="preserve" text-anchor="start" font-family="Helvetica, Arial, sans-serif" font-size="24" id="svg_90" y="725" x="66" fill-opacity="null" stroke-opacity="null" stroke-width="0" stroke="#000" fill="#000000">H1</text>
  <text xml:space="preserve" text-anchor="start" font-family="Helvetica, Arial, sans-serif" font-size="24" id="svg_91" y="685.999936" x="140.333338" fill-opacity="null" stroke-opacity="null" stroke-width="0" stroke="#000" fill="#000000">H2</text>
  <text xml:space="preserve" text-anchor="start" font-family="Helvetica, Arial, sans-serif" font-size="24" id="svg_92" y="639" x="216" fill-opacity="null" stroke-opacity="null" stroke-width="0" stroke="#000" fill="#000000">H3</text>
  <text xml:space="preserve" text-anchor="start" font-family="Helvetica, Arial, sans-serif" font-size="24" id="svg_93" y="610" x="287" fill-opacity="null" stroke-opacity="null" stroke-width="0" stroke="#000" fill="#000000">H4</text>
  <text xml:space="preserve" text-anchor="start" font-family="Helvetica, Arial, sans-serif" font-size="24" id="svg_94" y="565" x="365" fill-opacity="null" stroke-opacity="null" stroke-width="0" stroke="#000" fill="#000000">H5</text>
  <text xml:space="preserve" text-anchor="start" font-family="Helvetica, Arial, sans-serif" font-size="24" id="svg_95" y="809" x="71" fill-opacity="null" stroke-opacity="null" stroke-width="0" stroke="#000" fill="#000000">I1</text>
  <text xml:space="preserve" text-anchor="start" font-family="Helvetica, Arial, sans-serif" font-size="24" id="svg_96" y="766" x="144" fill-opacity="null" stroke-opacity="null" stroke-width="0" stroke="#000" fill="#000000">I2</text>
  <text xml:space="preserve" text-anchor="start" font-family="Helvetica, Arial, sans-serif" font-size="24" id="svg_97" y="729" x="219" fill-opacity="null" stroke-opacity="null" stroke-width="0" stroke="#000" fill="#000000">I3</text>
  <text xml:space="preserve" text-anchor="start" font-family="Helvetica, Arial, sans-serif" font-size="24" id="svg_98" y="688" x="293" fill-opacity="null" stroke-opacity="null" stroke-width="0" stroke="#000" fill="#000000">I4</text>
  <text xml:space="preserve" text-anchor="start" font-family="Helvetica, Arial, sans-serif" font-size="24" id="svg_99" y="643" x="371" fill-opacity="null" stroke-opacity="null" stroke-width="0" stroke="#000" fill="#000000">I5</text>
  <text style="cursor: move;" xml:space="preserve" text-anchor="start" font-family="Helvetica, Arial, sans-serif" font-size="24" id="svg_100" y="848.000001" x="142" fill-opacity="null" stroke-opacity="null" stroke-width="0" stroke="#000" fill="#000000">J2</text>
  <text style="cursor: move;" xml:space="preserve" text-anchor="start" font-family="Helvetica, Arial, sans-serif" font-size="24" id="svg_101" y="807" x="221" fill-opacity="null" stroke-opacity="null" stroke-width="0" stroke="#000" fill="#000000">J3</text>
  <text style="cursor: move;" xml:space="preserve" text-anchor="start" font-family="Helvetica, Arial, sans-serif" font-size="24" id="svg_102" y="769" x="293" fill-opacity="null" stroke-opacity="null" stroke-width="0" stroke="#000" fill="#000000">J4</text>
  <text style="cursor: move;" xml:space="preserve" text-anchor="start" font-family="Helvetica, Arial, sans-serif" font-size="24" id="svg_103" y="725" x="369" fill-opacity="null" stroke-opacity="null" stroke-width="0" stroke="#000" fill="#000000">J5</text>
  <text style="cursor: move;" xml:space="preserve" text-anchor="start" font-family="Helvetica, Arial, sans-serif" font-size="24" id="svg_104" y="895" x="217" fill-opacity="null" stroke-opacity="null" stroke-width="0" stroke="#000" fill="#000000">K3</text>
  <text style="cursor: move;" xml:space="preserve" text-anchor="start" font-family="Helvetica, Arial, sans-serif" font-size="24" id="svg_105" y="846" x="295" fill-opacity="null" stroke-opacity="null" stroke-width="0" stroke="#000" fill="#000000">K4</text>
  <text style="cursor: move;" xml:space="preserve" text-anchor="start" font-family="Helvetica, Arial, sans-serif" font-size="24" id="svg_106" y="804.333239" x="367.333331" fill-opacity="null" stroke-opacity="null" stroke-width="0" stroke="#000" fill="#000000">K5</text>
  <line stroke-linecap="null" stroke-linejoin="null" id="svg_110" y2="388.231354" x2="211.739839" y1="370.982182" x1="178.241446" fill-opacity="null" stroke-opacity="null" stroke-width="1.5" stroke="#000" fill="none"/>
  <line stroke-linecap="null" stroke-linejoin="null" id="svg_111" y2="421.979734" x2="279.486588" y1="412.730178" x1="255.237751" fill-opacity="null" stroke-opacity="null" stroke-width="1.5" stroke="#000" fill="none"/>
  <line stroke-linecap="null" stroke-linejoin="null" id="svg_112" y2="403.980598" x2="301.73552" y1="385.981462" x1="301.235544" fill-opacity="null" stroke-opacity="null" stroke-width="1.5" stroke="#000" fill="none"/>
  <line stroke-linecap="null" stroke-linejoin="null" id="svg_114" y2="374.732002" x2="281.73648" y1="388.73133" x1="253.487835" fill-opacity="null" stroke-opacity="null" stroke-width="1.5" stroke="#000" fill="none"/>
  <line stroke-linecap="null" stroke-linejoin="null" id="svg_115" y2="374.232026" x2="230.238951" y1="345.733393" x1="229.738975" fill-opacity="null" stroke-opacity="null" stroke-width="1.5" stroke="#000" fill="none"/>
  <line stroke-linecap="null" stroke-linejoin="null" id="svg_116" y2="425.479566" x2="178.741422" y1="412.48019" x1="209.989923" fill-opacity="null" stroke-opacity="null" stroke-width="1.5" stroke="#000" fill="none"/>
  <line stroke-linecap="null" stroke-linejoin="null" id="svg_117" y2="453.978199" x2="231.238903" y1="429.229386" x1="230.238951" fill-opacity="null" stroke-opacity="null" stroke-width="1.5" stroke="#000" fill="none"/>
  <line stroke-linecap="null" stroke-linejoin="null" id="svg_118" y2="331.484077" x2="254.487787" y1="344.733441" x1="281.73648" fill-opacity="null" stroke-opacity="null" stroke-width="1.5" stroke="#000" fill="none"/>
  <line stroke-linecap="null" stroke-linejoin="null" id="svg_119" y2="331.484077" x2="300.48558" y1="307.985205" x1="300.235592" fill-opacity="null" stroke-opacity="null" stroke-width="1.5" stroke="#000" fill="none"/>
  <line stroke-linecap="null" stroke-linejoin="null" id="svg_120" y2="328.734209" x2="359.982725" y1="344.983429" x1="323.984452" fill-opacity="null" stroke-opacity="null" stroke-width="1.5" stroke="#000" fill="none"/>
  <line stroke-linecap="null" stroke-linejoin="null" id="svg_122" y2="386.981414" x2="360.732689" y1="371.732146" x1="323.484476" fill-opacity="null" stroke-opacity="null" stroke-width="1.5" stroke="#000" fill="none"/>
  <line stroke-linecap="null" stroke-linejoin="null" id="svg_124" y2="466.477599" x2="210.739887" y1="450.478367" x1="179.241398" fill-opacity="null" stroke-opacity="null" stroke-width="1.5" stroke="#000" fill="none"/>
  <line stroke-linecap="null" stroke-linejoin="null" id="svg_125" y2="492.726339" x2="155.492538" y1="464.977671" x1="155.992514" fill-opacity="null" stroke-opacity="null" stroke-width="1.5" stroke="#000" fill="none"/>
  <line stroke-linecap="null" stroke-linejoin="null" id="svg_126" y2="410.480286" x2="153.742622" y1="385.981462" x1="153.99261" fill-opacity="null" stroke-opacity="null" stroke-width="1.5" stroke="#000" fill="none"/>
  <line stroke-linecap="null" stroke-linejoin="null" id="svg_127" y2="372.48211" x2="381.731681" y1="345.733393" x1="381.231705" fill-opacity="null" stroke-opacity="null" stroke-width="1.5" stroke="#000" fill="none"/>
  <line stroke-linecap="null" stroke-linejoin="null" id="svg_128" y2="305.235337" x2="362.232617" y1="292.735937" x1="323.984452" fill-opacity="null" stroke-opacity="null" stroke-width="1.5" stroke="#000" fill="none"/>
  <line stroke-linecap="null" stroke-linejoin="null" id="svg_133" y2="424.091631" x2="136.529438" y1="410.588714" x1="103.522306" fill-opacity="null" stroke-opacity="null" stroke-width="1.5" stroke="#000" fill="none"/>
  <line stroke-linecap="null" stroke-linejoin="null" id="svg_134" y2="465.100492" x2="102.021982" y1="449.597142" x1="135.029114" fill-opacity="null" stroke-opacity="null" stroke-width="1.5" stroke="#000" fill="none"/>
  <line stroke-linecap="null" stroke-linejoin="null" id="svg_135" y2="527.113891" x2="81.017444" y1="505.609244" x1="80.517336" fill-opacity="null" stroke-opacity="null" stroke-width="1.5" stroke="#000" fill="none"/>
  <line stroke-linecap="null" stroke-linejoin="null" id="svg_136" y2="504.666632" x2="135.66663" y1="489.666633" x1="102.666633" fill-opacity="null" stroke-opacity="null" stroke-width="1.5" stroke="#000" fill="none"/>
  <line stroke-linecap="null" stroke-linejoin="null" id="svg_137" y2="450.999969" x2="78.333301" y1="425.333304" x1="78.333301" fill-opacity="null" stroke-opacity="null" stroke-width="1.5" stroke="#000" fill="none"/>
  <line stroke-linecap="null" stroke-linejoin="null" id="svg_139" y2="84.332733" x2="209.998505" y1="103.665928" x1="178.332063" fill-opacity="null" stroke-opacity="null" stroke-width="1.5" stroke="#000" fill="none"/>
  <line stroke-linecap="null" stroke-linejoin="null" id="svg_140" y2="133.332384" x2="230.998355" y1="99.665957" x1="230.331693" fill-opacity="null" stroke-opacity="null" stroke-width="1.5" stroke="#000" fill="none"/>
  <line stroke-linecap="null" stroke-linejoin="null" id="svg_141" y2="104.999252" x2="284.331309" y1="85.999388" x1="253.66486" fill-opacity="null" stroke-opacity="null" stroke-width="1.5" stroke="#000" fill="none"/>
  <line stroke-linecap="null" stroke-linejoin="null" id="svg_142" y2="143.332313" x2="105.332583" y1="126.665765" x1="134.332377" fill-opacity="null" stroke-opacity="null" stroke-width="1.5" stroke="#000" fill="none"/>
  <line stroke-linecap="null" stroke-linejoin="null" id="svg_143" y2="180.66538" x2="155.332227" y1="145.665629" x1="155.998889" fill-opacity="null" stroke-opacity="null" stroke-width="1.5" stroke="#000" fill="none"/>
  <line stroke-linecap="null" stroke-linejoin="null" id="svg_144" y2="143.332313" x2="211.665159" y1="132.332391" x1="178.332063" fill-opacity="null" stroke-opacity="null" stroke-width="1.5" stroke="#000" fill="none"/>
  <line stroke-linecap="null" stroke-linejoin="null" id="svg_145" y2="148.332277" x2="254.998184" y1="132.665722" x1="281.997992" fill-opacity="null" stroke-opacity="null" stroke-width="1.5" stroke="#000" fill="none"/>
  <line stroke-linecap="null" stroke-linejoin="null" id="svg_146" y2="147.332284" x2="362.330753" y1="130.665736" x1="327.664333" fill-opacity="null" stroke-opacity="null" stroke-width="1.5" stroke="#000" fill="none"/>
  <line stroke-linecap="null" stroke-linejoin="null" id="svg_147" y2="181.332042" x2="306.664483" y1="148.998939" x1="305.331159" fill-opacity="null" stroke-opacity="null" stroke-width="1.5" stroke="#000" fill="none"/>
  <line stroke-linecap="null" stroke-linejoin="null" id="svg_148" y2="193.998619" x2="134.332377" y1="170.665451" x1="105.665914" fill-opacity="null" stroke-opacity="null" stroke-width="1.5" stroke="#000" fill="none"/>
  <line stroke-linecap="null" stroke-linejoin="null" id="svg_155" y2="292.331252" x2="382.997273" y1="260.33148" x1="382.330611" fill-opacity="null" stroke-opacity="null" stroke-width="1.5" stroke="#000" fill="none"/>
  <line stroke-linecap="null" stroke-linejoin="null" id="svg_156" y2="210.998498" x2="81.332754" y1="184.332021" x1="80.999423" fill-opacity="null" stroke-opacity="null" stroke-width="1.5" stroke="#000" fill="none"/>
  <line stroke-linecap="null" stroke-linejoin="null" id="svg_157" y2="219.331772" x2="133.332384" y1="225.998391" x1="104.33259" fill-opacity="null" stroke-opacity="null" stroke-width="1.5" stroke="#000" fill="none"/>
  <line stroke-linecap="null" stroke-linejoin="null" id="svg_158" y2="266.664768" x2="133.665715" y1="252.664867" x1="102.999267" fill-opacity="null" stroke-opacity="null" stroke-width="1.5" stroke="#000" fill="none"/>
  <line stroke-linecap="null" stroke-linejoin="null" id="svg_159" y2="292.331252" x2="78.332776" y1="264.998113" x1="78.332776" fill-opacity="null" stroke-opacity="null" stroke-width="1.5" stroke="#000" fill="none"/>
  <line stroke-linecap="null" stroke-linejoin="null" id="svg_160" y2="252.331537" x2="154.665565" y1="234.998327" x1="154.998896" fill-opacity="null" stroke-opacity="null" stroke-width="1.5" stroke="#000" fill="none"/>
  <line stroke-linecap="null" stroke-linejoin="null" id="svg_161" y2="226.331722" x2="212.331821" y1="220.665095" x1="177.665402" fill-opacity="null" stroke-opacity="null" stroke-width="1.5" stroke="#000" fill="none"/>
  <line stroke-linecap="null" stroke-linejoin="null" id="svg_162" y2="172.665437" x2="208.998512" y1="192.665295" x1="176.665409" fill-opacity="null" stroke-opacity="null" stroke-width="1.5" stroke="#000" fill="none"/>
  <line stroke-linecap="null" stroke-linejoin="null" id="svg_163" y2="211.99849" x2="230.998355" y1="186.665337" x1="231.331686" fill-opacity="null" stroke-opacity="null" stroke-width="1.5" stroke="#000" fill="none"/>
  <line stroke-linecap="null" stroke-linejoin="null" id="svg_164" y2="190.331978" x2="285.997963" y1="171.998775" x1="253.998191" fill-opacity="null" stroke-opacity="null" stroke-width="1.5" stroke="#000" fill="none"/>
  <line stroke-linecap="null" stroke-linejoin="null" id="svg_165" y2="219.998433" x2="283.331316" y1="227.665046" x1="255.998177" fill-opacity="null" stroke-opacity="null" stroke-width="1.5" stroke="#000" fill="none"/>
  <line stroke-linecap="null" stroke-linejoin="null" id="svg_166" y2="264.998113" x2="281.33133" y1="251.998206" x1="254.998184" fill-opacity="null" stroke-opacity="null" stroke-width="1.5" stroke="#000" fill="none"/>
  <line stroke-linecap="null" stroke-linejoin="null" id="svg_167" y2="253.331529" x2="304.997828" y1="235.664989" x1="305.331159" fill-opacity="null" stroke-opacity="null" stroke-width="1.5" stroke="#000" fill="none"/>
  <line stroke-linecap="null" stroke-linejoin="null" id="svg_168" y2="173.66543" x2="362.330753" y1="193.998619" x1="325.997679" fill-opacity="null" stroke-opacity="null" stroke-width="1.5" stroke="#000" fill="none"/>
  <line stroke-linecap="null" stroke-linejoin="null" id="svg_169" y2="219.998433" x2="361.997422" y1="220.331764" x1="326.997672" fill-opacity="null" stroke-opacity="null" stroke-width="1.5" stroke="#000" fill="none"/>
  <line stroke-linecap="null" stroke-linejoin="null" id="svg_170" y2="206.665195" x2="383.330604" y1="187.66533" x1="383.330604" fill-opacity="null" stroke-opacity="null" stroke-width="1.5" stroke="#000" fill="none"/>
  <line stroke-linecap="null" stroke-linejoin="null" id="svg_171" y2="268.664754" x2="323.664362" y1="244.331594" x1="359.664106" fill-opacity="null" stroke-opacity="null" stroke-width="1.5" stroke="#000" fill="none"/>
  <line stroke-linecap="null" stroke-linejoin="null" id="svg_172" y2="266.998099" x2="176.332078" y1="249.99822" x1="211.99849" fill-opacity="null" stroke-opacity="null" stroke-width="1.5" stroke="#000" fill="none"/>
  <line stroke-linecap="null" stroke-linejoin="null" id="svg_173" y2="304.997828" x2="210.998498" y1="292.331252" x1="177.332071" fill-opacity="null" stroke-opacity="null" stroke-width="1.5" stroke="#000" fill="none"/>
  <line stroke-linecap="null" stroke-linejoin="null" id="svg_174" y2="331.664305" x2="154.332234" y1="306.664483" x1="153.998903" fill-opacity="null" stroke-opacity="null" stroke-width="1.5" stroke="#000" fill="none"/>
  <line stroke-linecap="null" stroke-linejoin="null" id="svg_175" y2="306.331152" x2="102.665936" y1="290.664597" x1="132.999053" fill-opacity="null" stroke-opacity="null" stroke-width="1.5" stroke="#000" fill="none"/>
  <line stroke-linecap="null" stroke-linejoin="null" id="svg_176" y2="371.330689" x2="77.999445" y1="346.664198" x1="77.666114" fill-opacity="null" stroke-opacity="null" stroke-width="1.5" stroke="#000" fill="none"/>
  <line stroke-linecap="null" stroke-linejoin="null" id="svg_177" y2="344.330881" x2="134.999039" y1="332.997629" x1="102.665936" fill-opacity="null" stroke-opacity="null" stroke-width="1.5" stroke="#000" fill="none"/>
  <line stroke-linecap="null" stroke-linejoin="null" id="svg_178" y2="370.997358" x2="134.332377" y1="385.330589" x1="102.332605" fill-opacity="null" stroke-opacity="null" stroke-width="1.5" stroke="#000" fill="none"/>
  <line stroke-linecap="null" stroke-linejoin="null" id="svg_179" y2="330.664312" x2="209.998505" y1="346.330867" x1="177.665402" fill-opacity="null" stroke-opacity="null" stroke-width="1.5" stroke="#000" fill="none"/>
  <line stroke-linecap="null" stroke-linejoin="null" id="svg_180" y2="291.66459" x2="279.998006" y1="304.331166" x1="253.331529" fill-opacity="null" stroke-opacity="null" stroke-width="1.5" stroke="#000" fill="none"/>
  <line stroke-linecap="null" stroke-linejoin="null" id="svg_181" y2="530.329557" x2="133.665715" y1="541.66281" x1="104.999252" fill-opacity="null" stroke-opacity="null" stroke-width="1.5" stroke="#000" fill="none"/>
  <line stroke-linecap="null" stroke-linejoin="null" id="svg_182" y2="491.996497" x2="208.665181" y1="505.663066" x1="177.332071" fill-opacity="null" stroke-opacity="null" stroke-width="1.5" stroke="#000" fill="none"/>
  <line stroke-linecap="null" stroke-linejoin="null" id="svg_183" y2="443.996838" x2="280.997999" y1="466.330013" x1="251.998206" fill-opacity="null" stroke-opacity="null" stroke-width="1.5" stroke="#000" fill="none"/>
  <line stroke-linecap="null" stroke-linejoin="null" id="svg_184" y2="411.663735" x2="359.997437" y1="417.997024" x1="323.331031" fill-opacity="null" stroke-opacity="null" stroke-width="1.5" stroke="#000" fill="none"/>
  <line stroke-linecap="null" stroke-linejoin="null" id="svg_185" y2="454.330098" x2="382.330611" y1="426.996959" x1="381.330618" fill-opacity="null" stroke-opacity="null" stroke-width="1.5" stroke="#000" fill="none"/>
  <line stroke-linecap="null" stroke-linejoin="null" id="svg_186" y2="603.662368" x2="82.666078" y1="580.995863" x1="82.332747" fill-opacity="null" stroke-opacity="null" stroke-width="1.5" stroke="#000" fill="none"/>
  <line stroke-linecap="null" stroke-linejoin="null" id="svg_187" y2="585.995827" x2="135.999032" y1="567.329294" x1="103.332598" fill-opacity="null" stroke-opacity="null" stroke-width="1.5" stroke="#000" fill="none"/>
  <line stroke-linecap="null" stroke-linejoin="null" id="svg_188" y2="572.99592" x2="155.998889" y1="546.996105" x1="155.998889" fill-opacity="null" stroke-opacity="null" stroke-width="1.5" stroke="#000" fill="none"/>
  <line stroke-linecap="null" stroke-linejoin="null" id="svg_189" y2="525.662924" x2="232.331679" y1="507.329721" x1="231.998348" fill-opacity="null" stroke-opacity="null" stroke-width="1.5" stroke="#000" fill="none"/>
  <line stroke-linecap="null" stroke-linejoin="null" id="svg_190" y2="491.996497" x2="303.331173" y1="458.663401" x1="302.997842" fill-opacity="null" stroke-opacity="null" stroke-width="1.5" stroke="#000" fill="none"/>
  <line stroke-linecap="null" stroke-linejoin="null" id="svg_191" y2="611.662311" x2="133.665715" y1="618.995592" x1="103.665928" fill-opacity="null" stroke-opacity="null" stroke-width="1.5" stroke="#000" fill="none"/>
  <line stroke-linecap="null" stroke-linejoin="null" id="svg_192" y2="688.995094" x2="79.332768" y1="657.661984" x1="79.99943" fill-opacity="null" stroke-opacity="null" stroke-width="1.5" stroke="#000" fill="none"/>
  <line stroke-linecap="null" stroke-linejoin="null" id="svg_194" y2="664.661934" x2="135.33237" y1="644.995407" x1="102.332605" fill-opacity="null" stroke-opacity="null" stroke-width="1.5" stroke="#000" fill="none"/>
  <line stroke-linecap="null" stroke-linejoin="null" id="svg_195" y2="652.662019" x2="154.665565" y1="627.328866" x1="154.665565" fill-opacity="null" stroke-opacity="null" stroke-width="1.5" stroke="#000" fill="none"/>
  <line stroke-linecap="null" stroke-linejoin="null" id="svg_196" y2="566.995963" x2="210.665167" y1="587.329151" x1="177.665402" fill-opacity="null" stroke-opacity="null" stroke-width="1.5" stroke="#000" fill="none"/>
  <line stroke-linecap="null" stroke-linejoin="null" id="svg_197" y2="539.329493" x2="210.331836" y1="528.662902" x1="179.665387" fill-opacity="null" stroke-opacity="null" stroke-width="1.5" stroke="#000" fill="none"/>
  <line stroke-linecap="null" stroke-linejoin="null" id="svg_198" y2="604.662361" x2="231.665017" y1="579.99587" x1="231.331686" fill-opacity="null" stroke-opacity="null" stroke-width="1.5" stroke="#000" fill="none"/>
  <line stroke-linecap="null" stroke-linejoin="null" id="svg_199" y2="585.995827" x2="282.997985" y1="566.662632" x1="253.998191" fill-opacity="null" stroke-opacity="null" stroke-width="1.5" stroke="#000" fill="none"/>
  <line stroke-linecap="null" stroke-linejoin="null" id="svg_200" y2="532.996205" x2="280.331337" y1="539.329493" x1="253.66486" fill-opacity="null" stroke-opacity="null" stroke-width="1.5" stroke="#000" fill="none"/>
  <line stroke-linecap="null" stroke-linejoin="null" id="svg_201" y2="574.329244" x2="302.331181" y1="546.662774" x1="301.99785" fill-opacity="null" stroke-opacity="null" stroke-width="1.5" stroke="#000" fill="none"/>
  <line stroke-linecap="null" stroke-linejoin="null" id="svg_202" y2="542.329472" x2="359.997437" y1="532.662874" x1="323.997693" fill-opacity="null" stroke-opacity="null" stroke-width="1.5" stroke="#000" fill="none"/>
  <line stroke-linecap="null" stroke-linejoin="null" id="svg_203" y2="493.996482" x2="358.997444" y1="506.329728" x1="323.331031" fill-opacity="null" stroke-opacity="null" stroke-width="1.5" stroke="#000" fill="none"/>
  <line stroke-linecap="null" stroke-linejoin="null" id="svg_204" y2="467.330006" x2="360.330768" y1="443.330176" x1="324.331024" fill-opacity="null" stroke-opacity="null" stroke-width="1.5" stroke="#000" fill="none"/>
  <line stroke-linecap="null" stroke-linejoin="null" id="svg_205" y2="528.329571" x2="381.330618" y1="508.996376" x1="380.997287" fill-opacity="null" stroke-opacity="null" stroke-width="1.5" stroke="#000" fill="none"/>
  <line stroke-linecap="null" stroke-linejoin="null" id="svg_206" y2="690.99508" x2="135.665701" y1="701.995001" x1="102.665936" fill-opacity="null" stroke-opacity="null" stroke-width="1.5" stroke="#000" fill="none"/>
  <line stroke-linecap="null" stroke-linejoin="null" id="svg_207" y2="743.994702" x2="133.332384" y1="728.994809" x1="102.999267" fill-opacity="null" stroke-opacity="null" stroke-width="1.5" stroke="#000" fill="none"/>
  <line stroke-linecap="null" stroke-linejoin="null" id="svg_208" y2="773.661158" x2="80.332761" y1="743.32804" x1="80.332761" fill-opacity="null" stroke-opacity="null" stroke-width="1.5" stroke="#000" fill="none"/>
  <line stroke-linecap="null" stroke-linejoin="null" id="svg_209" y2="730.661464" x2="155.665558" y1="705.328311" x1="155.332227" fill-opacity="null" stroke-opacity="null" stroke-width="1.5" stroke="#000" fill="none"/>
  <line stroke-linecap="null" stroke-linejoin="null" id="svg_210" y2="643.995414" x2="209.331843" y1="665.328596" x1="177.998733" fill-opacity="null" stroke-opacity="null" stroke-width="1.5" stroke="#000" fill="none"/>
  <line stroke-linecap="null" stroke-linejoin="null" id="svg_211" y2="707.661628" x2="208.33185" y1="691.328411" x1="178.665394" fill-opacity="null" stroke-opacity="null" stroke-width="1.5" stroke="#000" fill="none"/>
  <line stroke-linecap="null" stroke-linejoin="null" id="svg_212" y2="693.661727" x2="230.665024" y1="658.328646" x1="230.331693" fill-opacity="null" stroke-opacity="null" stroke-width="1.5" stroke="#000" fill="none"/>
  <line stroke-linecap="null" stroke-linejoin="null" id="svg_213" y2="663.995272" x2="283.331316" y1="645.328738" x1="252.664867" fill-opacity="null" stroke-opacity="null" stroke-width="1.5" stroke="#000" fill="none"/>
  <line stroke-linecap="null" stroke-linejoin="null" id="svg_214" y2="612.995635" x2="280.664668" y1="618.995592" x1="252.998198" fill-opacity="null" stroke-opacity="null" stroke-width="1.5" stroke="#000" fill="none"/>
  <line stroke-linecap="null" stroke-linejoin="null" id="svg_216" y2="619.662254" x2="358.664113" y1="612.328973" x1="325.997679" fill-opacity="null" stroke-opacity="null" stroke-width="1.5" stroke="#000" fill="none"/>
  <line stroke-linecap="null" stroke-linejoin="null" id="svg_217" y2="564.329315" x2="357.66412" y1="585.995827" x1="323.664362" fill-opacity="null" stroke-opacity="null" stroke-width="1.5" stroke="#000" fill="none"/>
  <line stroke-linecap="null" stroke-linejoin="null" id="svg_218" y2="605.329023" x2="382.330611" y1="582.662518" x1="381.663949" fill-opacity="null" stroke-opacity="null" stroke-width="1.5" stroke="#000" fill="none"/>
  <line stroke-linecap="null" stroke-linejoin="null" id="svg_219" y2="771.327841" x2="133.332384" y1="786.661065" x1="102.332605" fill-opacity="null" stroke-opacity="null" stroke-width="1.5" stroke="#000" fill="none"/>
  <line stroke-linecap="null" stroke-linejoin="null" id="svg_220" y2="825.660787" x2="133.665715" y1="811.660887" x1="104.33259" fill-opacity="null" stroke-opacity="null" stroke-width="1.5" stroke="#000" fill="none"/>
  <line stroke-linecap="null" stroke-linejoin="null" id="svg_221" y2="811.660887" x2="153.665572" y1="784.327748" x1="153.665572" fill-opacity="null" stroke-opacity="null" stroke-width="1.5" stroke="#000" fill="none"/>
  <line stroke-linecap="null" stroke-linejoin="null" id="svg_222" y2="785.661072" x2="210.998498" y1="768.994524" x1="176.665409" fill-opacity="null" stroke-opacity="null" stroke-width="1.5" stroke="#000" fill="none"/>
  <line stroke-linecap="null" stroke-linejoin="null" id="svg_223" y2="734.661435" x2="208.33185" y1="742.994709" x1="174.998754" fill-opacity="null" stroke-opacity="null" stroke-width="1.5" stroke="#000" fill="none"/>
  <line stroke-linecap="null" stroke-linejoin="null" id="svg_224" y2="771.994503" x2="230.331693" y1="748.661336" x1="229.998362" fill-opacity="null" stroke-opacity="null" stroke-width="1.5" stroke="#000" fill="none"/>
  <line stroke-linecap="null" stroke-linejoin="null" id="svg_225" y2="745.994688" x2="283.664647" y1="734.328104" x1="251.664875" fill-opacity="null" stroke-opacity="null" stroke-width="1.5" stroke="#000" fill="none"/>
  <line stroke-linecap="null" stroke-linejoin="null" id="svg_226" y2="693.328396" x2="281.664661" y1="708.328289" x1="250.664882" fill-opacity="null" stroke-opacity="null" stroke-width="1.5" stroke="#000" fill="none"/>
  <line stroke-linecap="null" stroke-linejoin="null" id="svg_227" y2="733.661442" x2="303.664504" y1="706.994966" x1="303.331173" fill-opacity="null" stroke-opacity="null" stroke-width="1.5" stroke="#000" fill="none"/>
  <line stroke-linecap="null" stroke-linejoin="null" id="svg_228" y2="652.662019" x2="301.664519" y1="628.66219" x1="301.664519" fill-opacity="null" stroke-opacity="null" stroke-width="1.5" stroke="#000" fill="none"/>
  <line stroke-linecap="null" stroke-linejoin="null" id="svg_229" y2="644.328745" x2="359.664106" y1="665.661927" x1="324.331024" fill-opacity="null" stroke-opacity="null" stroke-width="1.5" stroke="#000" fill="none"/>
  <line stroke-linecap="null" stroke-linejoin="null" id="svg_230" y2="704.661649" x2="359.997437" y1="691.995072" x1="325.331017" fill-opacity="null" stroke-opacity="null" stroke-width="1.5" stroke="#000" fill="none"/>
  <line stroke-linecap="null" stroke-linejoin="null" id="svg_231" y2="690.328418" x2="381.99728" y1="659.9953" x1="381.330618" fill-opacity="null" stroke-opacity="null" stroke-width="1.5" stroke="#000" fill="none"/>
  <line stroke-linecap="null" stroke-linejoin="null" id="svg_232" y2="730.661464" x2="360.330768" y1="748.328005" x1="326.33101" fill-opacity="null" stroke-opacity="null" stroke-width="1.5" stroke="#000" fill="none"/>
  <line stroke-linecap="null" stroke-linejoin="null" id="svg_233" y2="869.993805" x2="211.99849" y1="851.660602" x1="176.99874" fill-opacity="null" stroke-opacity="null" stroke-width="1.5" stroke="#000" fill="none"/>
  <line stroke-linecap="null" stroke-linejoin="null" id="svg_234" y2="811.994218" x2="211.331828" y1="822.99414" x1="175.665416" fill-opacity="null" stroke-opacity="null" stroke-width="1.5" stroke="#000" fill="none"/>
  <line stroke-linecap="null" stroke-linejoin="null" id="svg_235" y2="857.327229" x2="231.998348" y1="825.660787" x1="231.331686" fill-opacity="null" stroke-opacity="null" stroke-width="1.5" stroke="#000" fill="none"/>
  <line stroke-linecap="null" stroke-linejoin="null" id="svg_236" y2="825.660787" x2="288.997942" y1="810.994225" x1="255.331515" fill-opacity="null" stroke-opacity="null" stroke-width="1.5" stroke="#000" fill="none"/>
  <line stroke-linecap="null" stroke-linejoin="null" id="svg_237" y2="771.994503" x2="282.331323" y1="784.99441" x1="254.331522" fill-opacity="null" stroke-opacity="null" stroke-width="1.5" stroke="#000" fill="none"/>
  <line stroke-linecap="null" stroke-linejoin="null" id="svg_238" y2="811.660887" x2="304.664497" y1="787.661058" x1="304.331166" fill-opacity="null" stroke-opacity="null" stroke-width="1.5" stroke="#000" fill="none"/>
  <line stroke-linecap="null" stroke-linejoin="null" id="svg_239" y2="783.327755" x2="359.997437" y1="772.994496" x1="326.664341" fill-opacity="null" stroke-opacity="null" stroke-width="1.5" stroke="#000" fill="none"/>
  <line stroke-linecap="null" stroke-linejoin="null" id="svg_240" y2="809.660901" x2="359.997437" y1="824.994125" x1="331.330974" fill-opacity="null" stroke-opacity="null" stroke-width="1.5" stroke="#000" fill="none"/>
  <line stroke-linecap="null" stroke-linejoin="null" id="svg_241" y2="770.661179" x2="380.663956" y1="743.994702" x1="380.663956" fill-opacity="null" stroke-opacity="null" stroke-width="1.5" stroke="#000" fill="none"/>
  <line stroke-linecap="null" stroke-linejoin="null" id="svg_242" y2="851.958574" x2="288.985907" y1="870.95765" x1="253.487634" fill-opacity="null" stroke-opacity="null" stroke-width="1.5" stroke="#000" fill="none"/>
  <path id="svg_245" d="m86.000067,252.000256" opacity="0.5" stroke-width="1.5" stroke="#000" fill="#fff"/>
  <line stroke-linecap="null" stroke-linejoin="null" id="svg_249" y2="291.703057" x2="230.567632" y1="266.375546" x1="230.567632" stroke-width="1.5" stroke="#000" fill="none"/>
 </g>
</svg>