<svg width="1600" height="1200" xmlns="http://www.w3.org/2000/svg">
 <!-- Created with Method Draw - http://github.com/duopixel/Method-Draw/ -->
 <g>
  <title>background</title>
  <rect fill="#fff" id="canvas_background" height="1202" width="1602" y="-1" x="-1"/>
  <g display="none" overflow="visible" y="0" x="0" height="100%" width="100%" id="canvasGrid">
   <rect fill="url(#gridpattern)" stroke-width="0" y="0" x="0" height="100%" width="100%"/>
  </g>
 </g>
 <g>
  <title>Layer 1</title>
  <path id="svg_2" d="m57.197464,157.942283l11.571429,-26.999996l30.857143,0l11.571426,26.999996l-11.571426,26.999996l-30.857143,0l-11.571429,-26.999996z" stroke-width="1.5" stroke="#000" fill="#fff"/>
  <path id="svg_3" d="m130.19746,118.94228l11.57143,-26.99999l30.85715,0l11.57142,26.99999l-11.57142,27l-30.85715,0l-11.57143,-27z" stroke-width="1.5" stroke="#000" fill="#fff"/>
  <path id="svg_4" d="m128.19746,207.94228l11.57143,-26.99999l30.85715,0l11.57142,26.99999l-11.57142,27l-30.85715,0l-11.57143,-27z" stroke-width="1.5" stroke="#000" fill="#fff"/>
  <path id="svg_5" d="m205.19746,159.94228l11.57143,-26.99999l30.85715,0l11.57142,26.99999l-11.57142,27l-30.85715,0l-11.57143,-27z" stroke-width="1.5" stroke="#000" fill="#fff"/>
  <path id="svg_6" d="m207.19746,230.94228l11.57143,-26.99999l30.85715,0l11.57142,26.99999l-11.57142,27l-30.85715,0l-11.57143,-27z" stroke-width="1.5" stroke="#000" fill="#fff"/>
  <path id="svg_7" d="m205.19746,72.94228l11.57143,-26.99999l30.85715,0l11.57142,26.99999l-11.57142,27l-30.85715,0l-11.57143,-27z" stroke-width="1.5" stroke="#000" fill="#fff"/>
  <path id="svg_8" d="m128.19746,279.94228l11.57143,-26.99999l30.85715,0l11.57142,26.99999l-11.57142,27l-30.85715,0l-11.57143,-27z" stroke-width="1.5" stroke="#000" fill="#fff"/>
  <path id="svg_9" d="m205.19746,318.94228l11.57143,-26.99999l30.85715,0l11.57142,26.99999l-11.57142,27l-30.85715,0l-11.57143,-27z" stroke-width="1.5" stroke="#000" fill="#fff"/>
  <path id="svg_10" d="m55.19746,230.94228l11.57143,-26.99999l30.85715,0l11.57142,26.99999l-11.57142,27l-30.85715,0l-11.57143,-27z" stroke-width="1.5" stroke="#000" fill="#fff"/>
  <path id="svg_11" d="m275.19746,519.94228l11.57143,-26.99999l30.85715,0l11.57142,26.99999l-11.57142,27l-30.85715,0l-11.57143,-27z" stroke-width="1.5" stroke="#000" fill="#fff"/>
  <path id="svg_12" d="m277.19746,121.94228l11.57143,-26.99999l30.85715,0l11.57142,26.99999l-11.57142,27l-30.85715,0l-11.57143,-27z" stroke-width="1.5" stroke="#000" fill="#fff"/>
  <path id="svg_13" d="m278.19746,208.94228l11.57143,-26.99999l30.85715,0l11.57142,26.99999l-11.57142,27l-30.85715,0l-11.57143,-27z" stroke-width="1.5" stroke="#000" fill="#fff"/>
  <path id="svg_14" d="m275.19746,280.94228l11.57143,-26.99999l30.85715,0l11.57142,26.99999l-11.57142,27l-30.85715,0l-11.57143,-27z" stroke-width="1.5" stroke="#000" fill="#fff"/>
  <path id="svg_15" d="m275.19746,358.94228l11.57143,-26.99999l30.85715,0l11.57142,26.99999l-11.57142,27l-30.85715,0l-11.57143,-27z" stroke-width="1.5" stroke="#000" fill="#fff"/>
  <path id="svg_16" d="m129.19746,519.94228l11.57143,-26.99999l30.85715,0l11.57142,26.99999l-11.57142,27l-30.85715,0l-11.57143,-27z" stroke-width="1.5" stroke="#000" fill="#fff"/>
  <path id="svg_17" d="m54.19746,319.94228l11.57143,-26.99999l30.85715,0l11.57142,26.99999l-11.57142,27l-30.85715,0l-11.57143,-27z" stroke-width="1.5" stroke="#000" fill="#fff"/>
  <path id="svg_18" d="m129.19746,358.94228l11.57143,-26.99999l30.85715,0l11.57142,26.99999l-11.57142,27l-30.85715,0l-11.57143,-27z" stroke-width="1.5" stroke="#000" fill="#fff"/>
  <path id="svg_19" d="m54.19746,398.94228l11.57143,-26.99999l30.85715,0l11.57142,26.99999l-11.57142,27l-30.85715,0l-11.57143,-27z" stroke-width="1.5" stroke="#000" fill="#fff"/>
  <path id="svg_20" d="m130.19746,437.94228l11.57143,-26.99999l30.85715,0l11.57142,26.99999l-11.57142,27l-30.85715,0l-11.57143,-27z" stroke-width="1.5" stroke="#000" fill="#fff"/>
  <path id="svg_21" d="m205.19746,401.94228l11.57143,-26.99999l30.85715,0l11.57142,26.99999l-11.57142,27l-30.85715,0l-11.57143,-27z" stroke-width="1.5" stroke="#000" fill="#fff"/>
  <path id="svg_22" d="m275.19746,431.94228l11.57143,-26.99999l30.85715,0l11.57142,26.99999l-11.57142,27l-30.85715,0l-11.57143,-27z" stroke-width="1.5" stroke="#000" fill="#fff"/>
  <path id="svg_23" d="m204.19746,480.94228l11.57143,-26.99999l30.85715,0l11.57142,26.99999l-11.57142,27l-30.85715,0l-11.57143,-27z" stroke-width="1.5" stroke="#000" fill="#fff"/>
  <path id="svg_24" d="m205.19746,552.94228l11.57143,-26.99999l30.85715,0l11.57142,26.99999l-11.57142,27l-30.85715,0l-11.57143,-27z" stroke-width="1.5" stroke="#000" fill="#fff"/>
  <path id="svg_25" d="m356.19746,160.94228l11.57143,-26.99999l30.85715,0l11.57142,26.99999l-11.57142,27l-30.85715,0l-11.57143,-27z" stroke-width="1.5" stroke="#000" fill="#fff"/>
  <path id="svg_26" d="m355.19746,231.94228l11.57143,-26.99999l30.85715,0l11.57142,26.99999l-11.57142,27l-30.85715,0l-11.57143,-27z" stroke-width="1.5" stroke="#000" fill="#fff"/>
  <path id="svg_27" d="m356.19746,318.94228l11.57143,-26.99999l30.85715,0l11.57142,26.99999l-11.57142,27l-30.85715,0l-11.57143,-27z" stroke-width="1.5" stroke="#000" fill="#fff"/>
  <path id="svg_28" d="m355.19746,399.94228l11.57143,-26.99999l30.85715,0l11.57142,26.99999l-11.57142,27l-30.85715,0l-11.57143,-27z" stroke-width="1.5" stroke="#000" fill="#fff"/>
  <path id="svg_29" d="m354.19746,481.94228l11.57143,-26.99999l30.85715,0l11.57142,26.99999l-11.57142,27l-30.85715,0l-11.57143,-27z" stroke-width="1.5" stroke="#000" fill="#fff"/>
  <path id="svg_30" d="m53.19746,478.94228l11.57143,-26.99999l30.85715,0l11.57142,26.99999l-11.57142,27l-30.85715,0l-11.57143,-27z" stroke-width="1.5" stroke="#000" fill="#fff"/>
  <path id="svg_31" d="m55.19746,553.94228l11.57143,-26.99999l30.85715,0l11.57142,26.99999l-11.57142,27l-30.85715,0l-11.57143,-27z" stroke-width="1.5" stroke="#000" fill="#fff"/>
  <path id="svg_32" d="m129.19746,600.94228l11.57143,-26.99999l30.85715,0l11.57142,26.99999l-11.57142,27l-30.85715,0l-11.57143,-27z" stroke-width="1.5" stroke="#000" fill="#fff"/>
  <path id="svg_33" d="m276.19746,601.94228l11.57143,-26.99999l30.85715,0l11.57142,26.99999l-11.57142,27l-30.85715,0l-11.57143,-27z" stroke-width="1.5" stroke="#000" fill="#fff"/>
  <path id="svg_34" d="m204.19746,631.94228l11.57143,-26.99999l30.85715,0l11.57142,26.99999l-11.57142,27l-30.85715,0l-11.57143,-27z" stroke-width="1.5" stroke="#000" fill="#fff"/>
  <path id="svg_35" d="m354.19746,555.94228l11.57143,-26.99999l30.85715,0l11.57142,26.99999l-11.57142,27l-30.85715,0l-11.57143,-27z" stroke-width="1.5" stroke="#000" fill="#fff"/>
  <path id="svg_36" d="m276.19746,679.94228l11.57143,-26.99999l30.85715,0l11.57142,26.99999l-11.57142,27l-30.85715,0l-11.57143,-27z" stroke-width="1.5" stroke="#000" fill="#fff"/>
  <path id="svg_37" d="m354.19746,632.94228l11.57143,-26.99999l30.85715,0l11.57142,26.99999l-11.57142,27l-30.85715,0l-11.57143,-27z" stroke-width="1.5" stroke="#000" fill="#fff"/>
  <path id="svg_38" d="m129.19746,667.94228l11.57143,-26.99999l30.85715,0l11.57142,26.99999l-11.57142,27l-30.85715,0l-11.57143,-27z" stroke-width="1.5" stroke="#000" fill="#fff"/>
  <path id="svg_39" d="m202.19746,721.94228l11.57143,-26.99999l30.85715,0l11.57142,26.99999l-11.57142,27l-30.85715,0l-11.57143,-27z" stroke-width="1.5" stroke="#000" fill="#fff"/>
  <path id="svg_40" d="m54.19746,630.94228l11.57143,-26.99999l30.85715,0l11.57142,26.99999l-11.57142,27l-30.85715,0l-11.57143,-27z" stroke-width="1.5" stroke="#000" fill="#fff"/>
  <path id="svg_41" d="m354.19746,717.94228l11.57143,-26.99999l30.85715,0l11.57142,26.99999l-11.57142,27l-30.85715,0l-11.57143,-27z" stroke-width="1.5" stroke="#000" fill="#fff"/>
  <path id="svg_42" d="m277.19746,760.94228l11.57143,-26.99999l30.85715,0l11.57142,26.99999l-11.57142,27l-30.85715,0l-11.57143,-27z" stroke-width="1.5" stroke="#000" fill="#fff"/>
  <path id="svg_43" d="m54.19746,716.94228l11.57143,-26.99999l30.85715,0l11.57142,26.99999l-11.57142,27l-30.85715,0l-11.57143,-27z" stroke-width="1.5" stroke="#000" fill="#fff"/>
  <path id="svg_44" d="m127.19746,757.94228l11.57143,-26.99999l30.85715,0l11.57142,26.99999l-11.57142,27l-30.85715,0l-11.57143,-27z" stroke-width="1.5" stroke="#000" fill="#fff"/>
  <path id="svg_45" d="m206.19746,798.94228l11.57143,-26.99999l30.85715,0l11.57142,26.99999l-11.57142,27l-30.85715,0l-11.57143,-27z" stroke-width="1.5" stroke="#000" fill="#fff"/>
  <path id="svg_46" d="m354.19746,783.94228l11.57143,-26.99999l30.85715,0l11.57142,26.99999l-11.57142,27l-30.85715,0l-11.57143,-27z" stroke-width="1.5" stroke="#000" fill="#fff"/>
  <path id="svg_47" d="m54.19746,800.94228l11.57143,-26.99999l30.85715,0l11.57142,26.99999l-11.57142,27l-30.85715,0l-11.57143,-27z" stroke-width="1.5" stroke="#000" fill="#fff"/>
  <path transform="translate(81,566) " id="svg_48" d="m47.19746,272.94228l11.57143,-26.99999l30.85715,0l11.57142,26.99999l-11.57142,27l-30.85715,0l-11.57143,-27z" stroke-width="1.5" stroke="#000" fill="#fff"/>
  <path id="svg_49" d="m283.19746,838.94228l11.57143,-26.99999l30.85715,0l11.57142,26.99999l-11.57142,27l-30.85715,0l-11.57143,-27z" stroke-width="1.5" stroke="#000" fill="#fff"/>
  <path id="svg_50" d="m205.19746,878.94228l11.57143,-26.99999l30.85715,0l11.57142,26.99999l-11.57142,27l-30.85715,0l-11.57143,-27z" stroke-width="1.5" stroke="#000" fill="#fff"/>
 </g>
</svg>